<?xml version="1.0" standalone="no"?>
<!DOCTYPE svg PUBLIC "-//W3C//DTD SVG 20010904//EN"
 "http://www.w3.org/TR/2001/REC-SVG-20010904/DTD/svg10.dtd">
<svg version="1.0" xmlns="http://www.w3.org/2000/svg"
 width="744.000000pt" height="335.000000pt" viewBox="0 0 744.000000 335.000000"
 preserveAspectRatio="xMidYMid meet">

<g transform="translate(0.000000,335.000000) scale(0.100000,-0.100000)"
fill="#000000" stroke="none">
<path d="M2872 3034 c-12 -8 -22 -21 -22 -29 0 -22 69 -73 139 -100 86 -35
132 -73 201 -166 91 -123 220 -410 220 -489 0 -130 -280 -494 -443 -577 -48
-24 -49 -24 -100 -7 -52 17 -182 78 -247 116 -187 111 -497 365 -763 627 -210
208 -229 245 -111 221 124 -25 446 -143 704 -257 19 -8 49 -21 65 -29 17 -7
93 -40 170 -74 273 -121 383 -160 448 -160 33 0 37 3 37 24 0 14 -13 37 -28
53 -60 59 -484 251 -902 408 -69 26 -159 59 -200 75 -184 69 -423 122 -484
106 -50 -12 -61 -99 -22 -181 112 -240 754 -788 1131 -966 116 -54 173 -69
271 -71 59 -1 78 3 121 26 49 27 236 209 389 379 34 37 66 67 71 67 13 0 183
-200 183 -214 0 -19 -14 -30 -70 -57 -173 -84 -395 -357 -569 -699 -164 -322
-209 -502 -94 -376 47 53 142 193 223 330 113 194 145 217 175 124 113 -348
472 -1088 527 -1088 27 0 161 235 315 550 119 242 162 338 199 449 15 42 30
81 34 86 4 6 13 27 19 48 15 45 26 47 47 5 78 -153 270 -454 332 -520 105
-113 42 111 -117 417 -72 139 -102 189 -203 337 -93 135 -284 310 -390 356
-54 23 -39 53 94 196 l58 61 97 -105 c173 -187 307 -316 356 -345 42 -24 58
-27 128 -27 95 2 138 12 244 59 371 165 1059 749 1163 987 6 15 12 55 12 87 0
51 -3 61 -25 75 -56 37 -258 -9 -610 -136 -238 -86 -675 -270 -850 -358 -114
-56 -141 -76 -161 -115 -15 -28 -15 -32 0 -42 37 -28 168 19 636 225 350 154
635 260 779 289 66 14 81 4 60 -36 -21 -41 -274 -291 -434 -428 -330 -284
-506 -404 -708 -485 -78 -31 -79 -31 -120 -15 -163 65 -458 437 -459 578 -1
97 133 391 240 527 57 73 102 109 182 147 78 37 130 77 130 100 0 41 -134 41
-221 0 -104 -50 -233 -204 -321 -382 -19 -38 -61 -132 -93 -207 -33 -76 -63
-138 -68 -138 -5 0 -59 49 -120 110 l-111 109 75 78 c41 43 90 102 108 131 74
116 121 281 91 317 -40 49 -91 -9 -178 -205 -35 -79 -72 -125 -123 -150 -125
-64 -227 13 -332 251 -25 56 -78 119 -101 119 -71 0 -32 -193 69 -343 18 -26
56 -73 86 -105 94 -100 97 -79 -27 -203 -60 -60 -112 -109 -117 -109 -4 0 -17
21 -28 47 -11 27 -27 61 -34 78 -8 16 -25 58 -39 92 -55 133 -158 310 -233
399 -85 101 -285 174 -351 128z m1229 -848 c48 -65 36 -128 -36 -188 -54 -45
-213 -56 -296 -20 -93 40 -128 126 -81 201 17 28 165 197 191 219 14 11 28 0
105 -80 49 -51 102 -111 117 -132z m-116 -497 c71 -26 131 -60 175 -99 19 -17
63 -54 97 -83 l62 -52 -417 -5 c-229 -3 -419 -4 -422 -2 -5 4 47 51 150 136
55 46 148 99 210 119 33 12 92 6 145 -14z m273 -432 c26 -14 32 -23 32 -52 0
-88 -87 -114 -385 -115 -166 0 -335 16 -366 35 -19 12 -40 74 -33 99 6 24 34
41 84 50 14 2 162 3 330 3 271 -2 309 -4 338 -20z m-105 -306 c64 -11 72 -20
57 -66 -18 -54 -77 -109 -136 -126 -63 -18 -303 -18 -357 0 -89 30 -167 143
-124 179 6 6 28 12 47 15 64 7 464 6 513 -2z m-63 -316 c0 -9 -124 -232 -152
-273 -16 -24 -35 -41 -41 -39 -7 2 -28 28 -48 58 -37 55 -139 240 -139 252 0
4 86 7 190 7 105 0 190 -2 190 -5z"/>
</g>
</svg>
